# xmcd CD database file
#
# Track frame offsets:
#	150
#	12442
#	25612
#	38753
#	50356
#	62899
#	73749
#	86077
#	98048
#	108902
#	120722
#	130673
#
# Disc length: 1889 seconds
#
# Revision: 0
# Processed by: cddbd v1.5.2PL0 Copyright (c) Steve Scherf et al.
# Submitted via: CDex 1.51
#
DISCID=99075f0c
DTITLE=Hank Williams - Best of Hank Williams
DYEAR=2006
DGENRE=Country
TTITLE0=Your Cheatin' Heart
TTITLE1=Hey Good Lookin'
TTITLE2=Jambalaya
TTITLE3=Kaw-Liga
TTITLE4=Lovesick Blues
TTITLE5=Why Don't You Love Me
TTITLE6=Cold Cold Heart
TTITLE7=Take These Chains From My Heart
TTITLE8=I Can't Help It
TTITLE9=Settin' The Woods On Fire
TTITLE10=Honky Tonk Blues
TTITLE11=I'll Never Get Out Of This World Alive
EXTD=YEAR: 2006
EXTT0=
EXTT1=
EXTT2=
EXTT3=
EXTT4=
EXTT5=
EXTT6=
EXTT7=
EXTT8=
EXTT9=
EXTT10=
EXTT11=
PLAYORDER=
